
nColumns=19
nRows=68
DataType=double
version=3
OpenSimVersion=4.4-2022-10-11-798caa840
endheader
time	ground_force_calcn_r_vx	ground_force_calcn_r_vy	ground_force_calcn_r_vz	ground_force_calcn_r_px	ground_force_calcn_r_py	ground_force_calcn_r_pz	ground_force_calcn_r_mx	ground_force_calcn_r_my	ground_force_calcn_r_mz	ground_force_calcn_l_vx	ground_force_calcn_l_vy	ground_force_calcn_l_vz	ground_force_calcn_l_px	ground_force_calcn_l_py	ground_force_calcn_l_pz	ground_force_calcn_l_mx	ground_force_calcn_l_my	ground_force_calcn_l_mz
6	7.88356	247.599	-34.9112	-0.274312	0	-0.338236	0.008799970000000001	0.276381	-0.0389694	-3.65347	297.102	45.056	-0.270585	0	-0.848102	-0.0183663	1.49356	0.2265
6.01	6.89705	247.734	-34.6918	-0.271589	0	-0.337648	0.00896891	0.322153	-0.0451132	-4.90657	290.534	43.7775	-0.266736	0	-0.848575	-0.0237073	1.40379	0.211522
6.02	5.88904	248.494	-34.5192	-0.268736	0	-0.337071	0.008643059999999999	0.364703	-0.0506622	-6.04383	284.092	42.3975	-0.262787	0	-0.849033	-0.0281757	1.32441	0.197653
6.03	4.86894	249.827	-34.4048	-0.265787	0	-0.336502	0.0077929	0.399857	-0.055066	-7.0611	277.791	40.9189	-0.258765	0	-0.849472	-0.0320019	1.25899	0.18545
6.04	3.84851	251.692	-34.3608	-0.262783	0	-0.335936	0.00648509	0.424123	-0.057901	-7.96046	271.683	39.358	-0.254693	0	-0.849894	-0.0354776	1.21082	0.175408
6.05	2.8377	254.069	-34.4029	-0.259772	0	-0.335369	0.00485804	0.434957	-0.0588966	-8.752980000000001	265.866	37.7461	-0.250587	0	-0.8502999999999999	-0.0389347	1.18262	0.167901
6.06	1.84323	256.959	-34.5493	-0.256794	0	-0.334798	0.00308861	0.430575	-0.0578927	-9.456160000000001	260.473	36.1271	-0.246467	0	-0.850698	-0.0427093	1.17644	0.16317
6.07	0.87013	260.371	-34.8157	-0.253886	0	-0.334218	0.00137008	0.409971	-0.0548196	-10.0879	255.651	34.554	-0.242353	0	-0.851098	-0.0471006	1.19364	0.161334
6.08	-0.07877960000000001	264.312	-35.2128	-0.251073	0	-0.333628	-0.000111166	0.372972	-0.049689	-10.6639	251.56	33.0863	-0.238274	0	-0.851511	-0.0523473	1.23487	0.162415
6.09	-1.00345	268.79	-35.7455	-0.248375	0	-0.333029	-0.00119504	0.320109	-0.0425702	-11.1966	248.372	31.7871	-0.234259	0	-0.85195	-0.0585963	1.29983	0.166355
6.1	-1.90446	273.818	-36.4142	-0.245803	0	-0.332423	-0.00175581	0.252446	-0.0335719	-11.6932	246.265	30.7197	-0.230345	0	-0.852426	-0.0658691	1.38724	0.173048
6.11	-2.78239	279.414	-37.2142	-0.243364	0	-0.331819	-0.00170727	0.171448	-0.0228345	-12.1581	245.413	29.9431	-0.226576	0	-0.85295	-0.0740552	1.49481	0.182383
6.12	-3.63896	285.6	-38.1352	-0.241065	0	-0.331225	-0.00100528	0.0788985	-0.010535	-12.596	245.973	29.5057	-0.223	0	-0.853523	-0.08294219999999999	1.61969	0.19429
6.13	-4.47438	292.402	-39.1614	-0.238915	0	-0.330654	0.00035655	-0.0233006	0.00312065	-13.0099	248.06	29.4394	-0.219669	0	-0.854139	-0.0922461	1.75886	0.208738
6.14	-5.28343	299.843	-40.2747	-0.23692	0	-0.330116	0.00235134	-0.133442	0.0179238	-13.4006	251.734	29.7542	-0.216637	0	-0.854782	-0.10164	1.90934	0.225678
6.15	-6.05791	307.939	-41.4585	-0.235089	0	-0.32962	0.00491946	-0.250069	0.0336673	-13.7675	257	30.4368	-0.213947	0	-0.855428	-0.110799	2.06831	0.244952
6.16	-6.79251	316.688	-42.7014	-0.233425	0	-0.329173	0.00797309	-0.37173	0.0501231	-14.1136	263.818	31.4536	-0.211626	0	-0.8560489999999999	-0.119475	2.23328	0.266262
6.17	-7.48891	326.062	-43.9969	-0.231922	0	-0.328775	0.0114103	-0.496797	0.06703480000000001	-14.4501	272.105	32.7578	-0.209678	0	-0.85662	-0.127559	2.40202	0.289172
6.18	-8.15798	336	-45.3428	-0.230571	0	-0.328423	0.0151378	-0.623478	0.0841375	-14.7954	281.727	34.2947	-0.208082	0	-0.857121	-0.135085	2.57222	0.313117
6.19	-8.82015	346.4	-46.7389	-0.229353	0	-0.32811	0.0190942	-0.749901	0.101182	-15.1723	292.495	36.0049	-0.206796	0	-0.8575390000000001	-0.142195	2.74127	0.337438
6.2	-9.50502	357.121	-48.1854	-0.228245	0	-0.327829	0.023267	-0.874184	0.117951	-15.6044	304.154	37.8299	-0.205763	0	-0.857869	-0.149089	2.90598	0.361439
6.21	-10.2499	367.996	-49.682	-0.227219	0	-0.32757	0.0276995	-0.994476	0.134261	-16.1149	316.383	39.7156	-0.204916	0	-0.858117	-0.155997	3.06268	0.384459
6.22	-11.0951	378.842	-51.2251	-0.226247	0	-0.327322	0.0324812	-1.10907	0.149963	-16.7251	328.81	41.613	-0.204188	0	-0.858291	-0.163148	3.20742	0.405921
6.23	-12.0771	389.462	-52.8056	-0.225306	0	-0.327081	0.0377235	-1.2165	0.164941	-17.4529	341.037	43.4786	-0.203518	0	-0.858401	-0.170734	3.3362	0.425331
6.24	-13.2255	399.661	-54.4061	-0.224379	0	-0.326841	0.0435418	-1.31579	0.179119	-18.3124	352.676	45.2742	-0.20285	0	-0.858459	-0.178888	3.44519	0.44227
6.25	-14.5605	409.251	-55.9989	-0.223453	0	-0.326606	0.050043	-1.40655	0.192463	-19.314	363.382	46.967	-0.202142	0	-0.858477	-0.187672	3.53095	0.456374
6.26	-16.0916	418.054	-57.5459	-0.222526	0	-0.326375	0.0573112	-1.48892	0.204953	-20.4634	372.878	48.5302	-0.201362	0	-0.8584619999999999	-0.19705	3.59059	0.467317
6.27	-17.8154	425.912	-58.9999	-0.221601	0	-0.326157	0.06539150000000001	-1.56331	0.216559	-21.7603	380.97	49.9437	-0.200487	0	-0.858423	-0.20688	3.62196	0.474826
6.28	-19.7163	432.692	-60.3104	-0.220685	0	-0.32596	0.0742761	-1.63006	0.227204	-23.1979	387.556	51.1945	-0.199505	0	-0.858364	-0.216917	3.62393	0.478706
6.29	-21.7683	438.301	-61.4299	-0.219785	0	-0.325791	0.0838909	-1.68913	0.236739	-24.7621	392.627	52.2757	-0.198416	0	-0.8582920000000001	-0.226824	3.59652	0.478852
6.3	-23.9365	442.691	-62.319	-0.218915	0	-0.325659	0.09408320000000001	-1.74001	0.244947	-26.431	396.259	53.1863	-0.197228	0	-0.8582070000000001	-0.236174	3.54077	0.475246
6.31	-26.1779	445.859	-62.9485	-0.218087	0	-0.32557	0.104618	-1.78185	0.25157	-28.1767	398.607	53.9331	-0.195959	0	-0.858112	-0.244483	3.45863	0.467966
6.32	-28.4419	447.842	-63.3	-0.217321	0	-0.325534	0.115184	-1.81367	0.256352	-29.9676	399.889	54.5317	-0.194634	0	-0.858007	-0.251247	3.35265	0.457191
6.33	-30.6703	448.713	-63.3678	-0.216646	0	-0.325555	0.125396	-1.83457	0.25908	-31.7694	400.348	55.0054	-0.193282	0	-0.857895	-0.255981	3.22579	0.443204
6.34	-32.7985	448.571	-63.1616	-0.216096	0	-0.325644	0.134804	-1.84365	0.259598	-33.5435	400.212	55.3804	-0.191939	0	-0.857778	-0.258248	3.08119	0.426367
6.35	-34.7605	447.539	-62.7053	-0.215711	0	-0.325802	0.142921	-1.8401	0.257818	-35.2443	399.658	55.6791	-0.190646	0	-0.857658	-0.257687	2.92208	0.407095
6.36	-36.4908	445.746	-62.0334	-0.215534	0	-0.326033	0.149246	-1.82308	0.253714	-36.8206	398.792	55.9172	-0.189445	0	-0.857536	-0.254071	2.75176	0.385842
6.37	-37.9284	443.308	-61.1886	-0.21561	0	-0.32634	0.153288	-1.79163	0.247294	-38.2204	397.649	56.1015	-0.188374	0	-0.857416	-0.247349	2.57344	0.363068
6.38	-39.0233	440.312	-60.2177	-0.215978	0	-0.326719	0.15461	-1.74451	0.238582	-39.3948	396.195	56.2293	-0.187474	0	-0.8572959999999999	-0.237662	2.39017	0.339221
6.39	-39.7402	436.803	-59.1654	-0.216665	0	-0.327168	0.152882	-1.68039	0.227611	-40.3015	394.333	56.2885	-0.186777	0	-0.857178	-0.225333	2.20479	0.314719
6.4	-40.0593	432.785	-58.0674	-0.217693	0	-0.327682	0.147943	-1.59832	0.214449	-40.9048	391.923	56.256	-0.186314	0	-0.857054	-0.210822	2.01996	0.289942
6.41	-39.9749	428.229	-56.9473	-0.219068	0	-0.328259	0.139842	-1.49805	0.199216	-41.1771	388.812	56.1005	-0.186111	0	-0.856919	-0.19469	1.83835	0.26525
6.42	-39.4916	423.086	-55.8163	-0.22079	0	-0.328892	0.128844	-1.38035	0.182104	-41.101	384.854	55.7861	-0.186187	0	-0.8567669999999999	-0.177551	1.66251	0.240988
6.43	-38.6211	417.302	-54.673	-0.222853	0	-0.32958	0.115418	-1.2471	0.163389	-40.6712	379.933	55.2765	-0.186561	0	-0.856586	-0.160037	1.495	0.217507
6.44	-37.3806	410.831	-53.5051	-0.225243	0	-0.330321	0.100205	-1.1013	0.143429	-39.8934	373.97	54.5378	-0.18724	0	-0.856371	-0.142726	1.33795	0.195119
6.45	-35.7942	403.646	-52.2919	-0.227941	0	-0.331111	0.08395560000000001	-0.946756	0.122651	-38.7806	366.919	53.5418	-0.188232	0	-0.85611	-0.126084	1.19293	0.174075
6.46	-33.8933	395.754	-51.0088	-0.230926	0	-0.331952	0.06746679999999999	-0.787776	0.101537	-37.3525	358.767	52.2691	-0.189544	0	-0.8557940000000001	-0.110465	1.06101	0.154579
6.47	-31.714	387.192	-49.6328	-0.234175	0	-0.332843	0.0514995	-0.62875	0.0805974	-35.6319	349.539	50.7099	-0.191182	0	-0.855412	-0.0961041	0.942754	0.136771
6.48	-29.2943	378.03	-48.1475	-0.237668	0	-0.333783	0.0367197	-0.473851	0.0603517	-33.641	339.298	48.8648	-0.193162	0	-0.85495	-0.08311200000000001	0.838255	0.120723
6.49	-26.6714	368.37	-46.5462	-0.241384	0	-0.33477	0.0236696	-0.326912	0.0413076	-31.3977	328.155	46.7451	-0.195507	0	-0.854394	-0.0714838	0.7471179999999999	0.106426
6.5	-23.8803	358.345	-44.8332	-0.245301	0	-0.335798	0.012752	-0.191356	0.0239409	-28.9136	316.273	44.3739	-0.198256	0	-0.853728	-0.0611211	0.668577	0.09380280000000001
6.51	-20.9556	348.106	-43.0233	-0.249393	0	-0.336862	0.00421911	-0.07008639999999999	0.00866215	-26.1955	303.876	41.7874	-0.201459	0	-0.852938	-0.0518414	0.601378	0.0826982
6.52	-17.9367	337.822	-41.1413	-0.253626	0	-0.337953	-0.00183762	0.0346101	-0.00421496	-23.2496	291.245	39.0357	-0.205171	0	-0.852008	-0.0434003	0.543671	0.0728685
6.53	-14.8683	327.664	-39.2181	-0.257953	0	-0.339058	-0.0054985	0.121175	-0.0145034	-20.0882	278.705	36.1814	-0.209448	0	-0.850932	-0.0355322	0.492976	0.0639979
6.54	-11.796	317.798	-37.2871	-0.262322	0	-0.34016	-0.00700907	0.188832	-0.0221556	-16.7343	266.6	33.2961	-0.214322	0	-0.849712	-0.0280065	0.446182	0.0557243
6.55	-8.76183	308.383	-35.383	-0.266667	0	-0.341243	-0.00674937	0.237552	-0.0272561	-13.2222	255.259	30.4548	-0.219796	0	-0.8483619999999999	-0.0207099	0.39981	0.0477013
6.56	-5.80209	299.567	-33.5394	-0.270921	0	-0.342291	-0.00519077	0.268004	-0.0300056	-9.595649999999999	244.973	27.7306	-0.225826	0	-0.846908	-0.0137282	0.350475	0.0396732
6.57	-2.94886	291.498	-31.7893	-0.275011	0	-0.343284	-0.00284553	0.281284	-0.0306754	-5.9038	235.992	25.1896	-0.232317	0	-0.845393	-0.0073937	0.295548	0.0315466
6.58	-0.23398	284.316	-30.1638	-0.278866	0	-0.344205	-0.000229378	0.278725	-0.0295706	-2.19718	228.514	22.8865	-0.23912	0	-0.84387	-0.00224693	0.233688	0.0234047
6.59	2.31063	278.159	-28.6912	-0.282413	0	-0.345036	0.00217474	0.261801	-0.0270038	1.47691	222.693	20.8597	-0.246039	0	-0.842399	0.00109556	0.165191	0.0154735
6.6	4.65936	273.154	-27.3927	-0.28559	0	-0.345763	0.00395617	0.231929	-0.0232585	5.07668	218.631	19.1306	-0.25285	0	-0.841039	0.00213696	0.09202970000000001	0.008052760000000001
6.61	6.80299	269.414	-26.2799	-0.288352	0	-0.346374	0.00480202	0.190171	-0.0185502	8.566660000000001	216.38	17.7049	-0.259315	0	-0.839845	0.000696585	0.0175946	0.00143965
6.62	8.758369999999999	267.029	-25.3552	-0.290673	0	-0.34686	0.00448983	0.136888	-0.0129979	11.9188	215.933	16.575	-0.265219	0	-0.838853	-0.00297136	-0.0538318	-0.00413213
6.63	10.5682	266.041	-24.615	-0.292557	0	-0.34722	0.00284232	0.07155160000000001	-0.00662018	15.1117	217.214	15.7234	-0.270389	0	-0.838085	-0.008190370000000001	-0.117727	-0.008521890000000001
6.64	12.2879	266.435	-24.0516	-0.294031	0	-0.347456	-0.000316952	-0.00687238	0.000620385	18.125	220.082	15.1278	-0.274716	0	-0.837543	-0.0139838	-0.169797	-0.0116714
6.65	13.9697	268.115	-23.6525	-0.295136	0	-0.347573	-0.00516898	-0.09920660000000001	0.008751780000000001	20.9308	224.33	14.7668	-0.278157	0	-0.837215	-0.0192523	-0.206341	-0.0135826
6.66	15.6498	270.909	-23.3988	-0.295929	0	-0.347589	-0.0118616	-0.205333	0.0177349	23.4892	229.703	14.6241	-0.280728	0	-0.83708	-0.0229624	-0.224552	-0.0142962
6.67	17.3419	274.575	-23.2659	-0.296465	0	-0.347517	-0.0204561	-0.323882	0.0274438	25.7524	235.912	14.6875	-0.28249	0	-0.837114	-0.0243155	-0.222748	-0.0138679
